<!DOCTYPE svg PUBLIC "-//W3C//DTD SVG 1.1//EN" "http://www.w3.org/Graphics/SVG/1.1/DTD/svg11.dtd">
<svg xmlns="http://www.w3.org/2000/svg" style="background-color: rgb(255, 255, 255);" xmlns:xlink="http://www.w3.org/1999/xlink" width="1241px" height="497px" version="1.1"><defs><clipPath id="mx-clip-314-75-302-26-0"><rect x="314" y="75" width="302" height="26"/></clipPath><clipPath id="mx-clip-314-109-302-26-0"><rect x="314" y="109" width="302" height="26"/></clipPath><clipPath id="mx-clip-314-135-302-26-0"><rect x="314" y="135" width="302" height="26"/></clipPath><clipPath id="mx-clip-314-161-302-26-0"><rect x="314" y="161" width="302" height="26"/></clipPath><clipPath id="mx-clip-314-187-302-26-0"><rect x="314" y="187" width="302" height="26"/></clipPath><clipPath id="mx-clip-944-334-202-26-0"><rect x="944" y="334" width="202" height="26"/></clipPath><clipPath id="mx-clip-944-368-202-26-0"><rect x="944" y="368" width="202" height="26"/></clipPath><clipPath id="mx-clip-944-394-202-26-0"><rect x="944" y="394" width="202" height="26"/></clipPath><clipPath id="mx-clip-944-420-202-26-0"><rect x="944" y="420" width="202" height="26"/></clipPath><clipPath id="mx-clip-944-446-202-26-0"><rect x="944" y="446" width="202" height="26"/></clipPath><clipPath id="mx-clip-944-472-202-26-0"><rect x="944" y="472" width="202" height="26"/></clipPath><clipPath id="mx-clip-944-31-292-26-0"><rect x="944" y="31" width="292" height="26"/></clipPath><clipPath id="mx-clip-944-57-292-26-0"><rect x="944" y="57" width="292" height="26"/></clipPath><clipPath id="mx-clip-944-83-292-26-0"><rect x="944" y="83" width="292" height="26"/></clipPath><clipPath id="mx-clip-944-109-292-26-0"><rect x="944" y="109" width="292" height="26"/></clipPath><clipPath id="mx-clip-944-135-292-26-0"><rect x="944" y="135" width="292" height="26"/></clipPath><clipPath id="mx-clip-944-161-292-26-0"><rect x="944" y="161" width="292" height="26"/></clipPath><clipPath id="mx-clip-944-187-292-26-0"><rect x="944" y="187" width="292" height="26"/></clipPath><clipPath id="mx-clip-944-213-292-26-0"><rect x="944" y="213" width="292" height="26"/></clipPath><clipPath id="mx-clip-944-239-292-26-0"><rect x="944" y="239" width="292" height="26"/></clipPath><clipPath id="mx-clip-314-304-302-26-0"><rect x="314" y="304" width="302" height="26"/></clipPath><clipPath id="mx-clip-314-338-302-26-0"><rect x="314" y="338" width="302" height="26"/></clipPath><clipPath id="mx-clip-314-364-302-26-0"><rect x="314" y="364" width="302" height="26"/></clipPath><clipPath id="mx-clip-314-390-302-26-0"><rect x="314" y="390" width="302" height="26"/></clipPath><clipPath id="mx-clip-314-416-302-26-0"><rect x="314" y="416" width="302" height="26"/></clipPath></defs><g transform="translate(0.5,0.5)"><rect x="310" y="44" width="310" height="164" fill="#ffffff" stroke="#000000" pointer-events="none"/><path d="M 310 70 L 310 44 L 620 44 L 620 70 Z" fill="none" stroke="#000000" stroke-miterlimit="10" pointer-events="none"/><g fill="#000000" font-family="Helvetica" font-weight="bold" text-anchor="middle" font-size="12px"><text x="464.5" y="62.5">UserApp</text></g><g fill="#000000" font-family="Helvetica" clip-path="url(#mx-clip-314-75-302-26-0)" font-size="12px"><text x="315.5" y="87.5">- vipUser: VipUser</text></g><path d="M 310 100 L 620 100" fill="none" stroke="#000000" stroke-miterlimit="10" pointer-events="none"/><g fill="#000000" font-family="Helvetica" clip-path="url(#mx-clip-314-109-302-26-0)" font-size="12px"><text x="315.5" y="121.5">+ addOrder(Order): void</text></g><g fill="#000000" font-family="Helvetica" clip-path="url(#mx-clip-314-135-302-26-0)" font-size="12px"><text x="315.5" y="147.5">+ removeOrder(Order): void</text></g><g fill="#000000" font-family="Helvetica" clip-path="url(#mx-clip-314-161-302-26-0)" font-size="12px"><text x="315.5" y="173.5">+ displayOrder(id: String): void</text></g><g fill="#000000" font-family="Helvetica" clip-path="url(#mx-clip-314-187-302-26-0)" font-size="12px"><text x="315.5" y="199.5">+ login(VipUser): boolean</text></g><rect x="940" y="303" width="210" height="190" fill="#ffffff" stroke="#000000" pointer-events="none"/><path d="M 940 329 L 940 303 L 1150 303 L 1150 329 Z" fill="none" stroke="#000000" stroke-miterlimit="10" pointer-events="none"/><g fill="#000000" font-family="Helvetica" font-weight="bold" text-anchor="middle" font-size="12px"><text x="1044.5" y="321.5">RestaurantApp</text></g><g fill="#000000" font-family="Helvetica" clip-path="url(#mx-clip-944-334-202-26-0)" font-size="12px"><text x="945.5" y="346.5">- waiter: Waiter</text></g><path d="M 940 359 L 1150 359" fill="none" stroke="#000000" stroke-miterlimit="10" pointer-events="none"/><g fill="#000000" font-family="Helvetica" clip-path="url(#mx-clip-944-368-202-26-0)" font-size="12px"><text x="945.5" y="380.5">+ login(Waiter): boolean</text></g><g fill="#000000" font-family="Helvetica" clip-path="url(#mx-clip-944-394-202-26-0)" font-size="12px"><text x="945.5" y="406.5">+ removeOrder(Order): void</text></g><g fill="#000000" font-family="Helvetica" clip-path="url(#mx-clip-944-420-202-26-0)" font-size="12px"><text x="945.5" y="432.5">+ addOrder(SitAndEatOrder): void</text></g><g fill="#000000" font-family="Helvetica" clip-path="url(#mx-clip-944-446-202-26-0)" font-size="12px"><text x="945.5" y="458.5">+ displayOrder(id: String): void</text></g><g fill="#000000" font-family="Helvetica" clip-path="url(#mx-clip-944-472-202-26-0)" font-size="12px"><text x="945.5" y="484.5">+ displayOrders(): void</text></g><rect x="940" y="0" width="300" height="260" fill="#ffffff" stroke="#000000" pointer-events="none"/><path d="M 940 26 L 940 0 L 1240 0 L 1240 26 Z" fill="none" stroke="#000000" stroke-miterlimit="10" pointer-events="none"/><g fill="#000000" font-family="Helvetica" font-weight="bold" text-anchor="middle" font-size="12px"><text x="1089.5" y="18.5">AdminApp</text></g><g fill="#000000" font-family="Helvetica" clip-path="url(#mx-clip-944-31-292-26-0)" font-size="12px"><text x="945.5" y="43.5">+ login(password: String): boolean</text></g><g fill="#000000" font-family="Helvetica" clip-path="url(#mx-clip-944-57-292-26-0)" font-size="12px"><text x="945.5" y="69.5">+ displayVipUsers(): void</text></g><g fill="#000000" font-family="Helvetica" clip-path="url(#mx-clip-944-83-292-26-0)" font-size="12px"><text x="945.5" y="95.5">+ addVipUser(VipUser): void</text></g><g fill="#000000" font-family="Helvetica" clip-path="url(#mx-clip-944-109-292-26-0)" font-size="12px"><text x="945.5" y="121.5">+ removeVipUser(name: String): void</text></g><g fill="#000000" font-family="Helvetica" clip-path="url(#mx-clip-944-135-292-26-0)" font-size="12px"><text x="945.5" y="147.5">+ displayCompanies(): void</text></g><g fill="#000000" font-family="Helvetica" clip-path="url(#mx-clip-944-161-292-26-0)" font-size="12px"><text x="945.5" y="173.5">+ addCompany(Company): void</text></g><g fill="#000000" font-family="Helvetica" clip-path="url(#mx-clip-944-187-292-26-0)" font-size="12px"><text x="945.5" y="199.5">+ removeCompany(name: String): void</text></g><g fill="#000000" font-family="Helvetica" clip-path="url(#mx-clip-944-213-292-26-0)" font-size="12px"><text x="945.5" y="225.5">+ displayReports(): void</text></g><g fill="#000000" font-family="Helvetica" clip-path="url(#mx-clip-944-239-292-26-0)" font-size="12px"><text x="945.5" y="251.5">+ displayValidOrderRules(): void</text></g><rect x="310" y="273" width="310" height="164" fill="#ffffff" stroke="#000000" pointer-events="none"/><path d="M 310 299 L 310 273 L 620 273 L 620 299 Z" fill="none" stroke="#000000" stroke-miterlimit="10" pointer-events="none"/><g fill="#000000" font-family="Helvetica" font-weight="bold" text-anchor="middle" font-size="12px"><text x="464.5" y="291.5">CompanyApp</text></g><g fill="#000000" font-family="Helvetica" clip-path="url(#mx-clip-314-304-302-26-0)" font-size="12px"><text x="315.5" y="316.5">- company : Company</text></g><path d="M 310 329 L 620 329" fill="none" stroke="#000000" stroke-miterlimit="10" pointer-events="none"/><g fill="#000000" font-family="Helvetica" clip-path="url(#mx-clip-314-338-302-26-0)" font-size="12px"><text x="315.5" y="350.5">+ addEmployee(name: String): void</text></g><g fill="#000000" font-family="Helvetica" clip-path="url(#mx-clip-314-364-302-26-0)" font-size="12px"><text x="315.5" y="376.5">+ removeEmployee(name: String): void</text></g><g fill="#000000" font-family="Helvetica" clip-path="url(#mx-clip-314-390-302-26-0)" font-size="12px"><text x="315.5" y="402.5">+ displayEmployees(): void</text></g><g fill="#000000" font-family="Helvetica" clip-path="url(#mx-clip-314-416-302-26-0)" font-size="12px"><text x="315.5" y="428.5">+ login(company: String, password: String): boolean</text></g><rect x="700" y="143" width="160" height="99" fill="#ffffff" stroke="#000000" pointer-events="none"/><path d="M 700 169 L 700 143 L 860 143 L 860 169 Z" fill="none" stroke="#000000" stroke-miterlimit="10" pointer-events="none"/><g fill="#000000" font-family="Helvetica" font-weight="bold" text-anchor="middle" font-size="12px"><text x="779.5" y="161.5">Server</text></g><path d="M 620 158.72 L 700 175.61" fill="none" stroke="#000000" stroke-miterlimit="10" pointer-events="none"/><path d="M 620 275.04 L 700 233.77" fill="none" stroke="#000000" stroke-miterlimit="10" pointer-events="none"/><path d="M 940 160.24 L 860 176.37" fill="none" stroke="#000000" stroke-miterlimit="10" pointer-events="none"/><path d="M 940 316.58 L 843.83 242" fill="none" stroke="#000000" stroke-miterlimit="10" pointer-events="none"/><path d="M 240 86 L 310 98.44" fill="none" stroke="#000000" stroke-miterlimit="10" stroke-dasharray="3 3" pointer-events="none"/><path d="M 0 39 L 226 39 L 240 53 L 240 132 L 0 132 L 0 39 Z" fill="none" stroke="#000000" stroke-miterlimit="10" pointer-events="none"/><path d="M 226 39 L 226 53 L 240 53" fill="none" stroke="#000000" stroke-miterlimit="10" pointer-events="none"/><g fill="#000000" font-family="Verdana" font-size="12px"><text x="2.5" y="51.5">Regular customers (non-VIP users) </text><text x="2.5" y="65.5">do not need to login into the </text><text x="2.5" y="79.5">system - they add new orders </text><text x="2.5" y="93.5">directly and access their order </text><text x="2.5" y="107.5">using the order ID</text></g></g></svg>