<!DOCTYPE svg PUBLIC "-//W3C//DTD SVG 1.1//EN" "http://www.w3.org/Graphics/SVG/1.1/DTD/svg11.dtd">
<svg xmlns="http://www.w3.org/2000/svg" style="background-color: rgb(255, 255, 255);" xmlns:xlink="http://www.w3.org/1999/xlink" width="1131px" height="853px" version="1.1"><defs><clipPath id="mx-clip-4-31-152-26-0"><rect x="4" y="31" width="152" height="26"/></clipPath><clipPath id="mx-clip-4-57-152-26-0"><rect x="4" y="57" width="152" height="26"/></clipPath><clipPath id="mx-clip-4-91-152-26-0"><rect x="4" y="91" width="152" height="26"/></clipPath><clipPath id="mx-clip-4-117-152-30-0"><rect x="4" y="117" width="152" height="30"/></clipPath><clipPath id="mx-clip-24-582-202-26-0"><rect x="24" y="582" width="202" height="26"/></clipPath><clipPath id="mx-clip-24-608-202-26-0"><rect x="24" y="608" width="202" height="26"/></clipPath><clipPath id="mx-clip-24-634-202-26-0"><rect x="24" y="634" width="202" height="26"/></clipPath><clipPath id="mx-clip-24-668-202-26-0"><rect x="24" y="668" width="202" height="26"/></clipPath><clipPath id="mx-clip-24-694-202-26-0"><rect x="24" y="694" width="202" height="26"/></clipPath><clipPath id="mx-clip-24-720-202-26-0"><rect x="24" y="720" width="202" height="26"/></clipPath><clipPath id="mx-clip-24-746-202-26-0"><rect x="24" y="746" width="202" height="26"/></clipPath><clipPath id="mx-clip-24-772-202-26-0"><rect x="24" y="772" width="202" height="26"/></clipPath><clipPath id="mx-clip-24-798-202-26-0"><rect x="24" y="798" width="202" height="26"/></clipPath><clipPath id="mx-clip-24-824-202-26-0"><rect x="24" y="824" width="202" height="26"/></clipPath><clipPath id="mx-clip-804-481-152-26-0"><rect x="804" y="481" width="152" height="26"/></clipPath><clipPath id="mx-clip-804-515-152-26-0"><rect x="804" y="515" width="152" height="26"/></clipPath><clipPath id="mx-clip-804-541-152-26-0"><rect x="804" y="541" width="152" height="26"/></clipPath><clipPath id="mx-clip-974-481-152-26-0"><rect x="974" y="481" width="152" height="26"/></clipPath><clipPath id="mx-clip-974-515-152-26-0"><rect x="974" y="515" width="152" height="26"/></clipPath><clipPath id="mx-clip-974-541-152-26-0"><rect x="974" y="541" width="152" height="26"/></clipPath><clipPath id="mx-clip-834-59-242-26-0"><rect x="834" y="59" width="242" height="26"/></clipPath><clipPath id="mx-clip-834-85-242-26-0"><rect x="834" y="85" width="242" height="26"/></clipPath><clipPath id="mx-clip-834-111-242-26-0"><rect x="834" y="111" width="242" height="26"/></clipPath><clipPath id="mx-clip-834-137-242-26-0"><rect x="834" y="137" width="242" height="26"/></clipPath><clipPath id="mx-clip-834-163-242-26-0"><rect x="834" y="163" width="242" height="26"/></clipPath><clipPath id="mx-clip-834-189-242-26-0"><rect x="834" y="189" width="242" height="26"/></clipPath><clipPath id="mx-clip-834-215-242-26-0"><rect x="834" y="215" width="242" height="26"/></clipPath><clipPath id="mx-clip-274-399-152-26-0"><rect x="274" y="399" width="152" height="26"/></clipPath><clipPath id="mx-clip-274-581-152-26-0"><rect x="274" y="581" width="152" height="26"/></clipPath><clipPath id="mx-clip-274-607-152-26-0"><rect x="274" y="607" width="152" height="26"/></clipPath><clipPath id="mx-clip-274-633-152-26-0"><rect x="274" y="633" width="152" height="26"/></clipPath><clipPath id="mx-clip-274-659-152-26-0"><rect x="274" y="659" width="152" height="26"/></clipPath><clipPath id="mx-clip-274-693-152-26-0"><rect x="274" y="693" width="152" height="26"/></clipPath><clipPath id="mx-clip-274-719-152-26-0"><rect x="274" y="719" width="152" height="26"/></clipPath><clipPath id="mx-clip-274-745-152-26-0"><rect x="274" y="745" width="152" height="26"/></clipPath><clipPath id="mx-clip-274-771-152-26-0"><rect x="274" y="771" width="152" height="26"/></clipPath><clipPath id="mx-clip-304-65-372-26-0"><rect x="304" y="65" width="372" height="26"/></clipPath><clipPath id="mx-clip-304-91-372-26-0"><rect x="304" y="91" width="372" height="26"/></clipPath><clipPath id="mx-clip-304-125-372-26-0"><rect x="304" y="125" width="372" height="26"/></clipPath><clipPath id="mx-clip-304-151-372-26-0"><rect x="304" y="151" width="372" height="26"/></clipPath><clipPath id="mx-clip-304-177-372-26-0"><rect x="304" y="177" width="372" height="26"/></clipPath><clipPath id="mx-clip-4-242-152-26-0"><rect x="4" y="242" width="152" height="26"/></clipPath><clipPath id="mx-clip-4-268-152-26-0"><rect x="4" y="268" width="152" height="26"/></clipPath><clipPath id="mx-clip-4-302-152-26-0"><rect x="4" y="302" width="152" height="26"/></clipPath><clipPath id="mx-clip-4-328-152-26-0"><rect x="4" y="328" width="152" height="26"/></clipPath></defs><g transform="translate(0.5,0.5)"><rect x="0" y="0" width="160" height="145" fill="#ffffff" stroke="#000000" pointer-events="none"/><path d="M 0 26 L 0 0 L 160 0 L 160 26 Z" fill="none" stroke="#000000" stroke-miterlimit="10" pointer-events="none"/><g fill="#000000" font-family="Verdana" font-weight="bold" text-anchor="middle" font-size="12px"><text x="79.5" y="18.5">VipUser</text></g><g fill="#000000" font-family="Helvetica" clip-path="url(#mx-clip-4-31-152-26-0)" font-size="12px"><text x="5.5" y="43.5">- name: String</text></g><g fill="#000000" font-family="Helvetica" clip-path="url(#mx-clip-4-57-152-26-0)" font-size="12px"><text x="5.5" y="69.5">- password: String</text></g><path d="M 0 82 L 160 82" fill="none" stroke="#000000" stroke-miterlimit="10" pointer-events="none"/><g fill="#000000" font-family="Helvetica" clip-path="url(#mx-clip-4-91-152-26-0)" font-size="12px"><text x="5.5" y="103.5">+ getName(): String</text></g><g fill="#000000" font-family="Helvetica" clip-path="url(#mx-clip-4-117-152-30-0)" font-size="12px"><text x="5.5" y="129.5">+ getPassword(): String</text></g><rect x="20" y="551" width="210" height="301" fill="#ffffff" stroke="#000000" pointer-events="none"/><path d="M 20 577 L 20 551 L 230 551 L 230 577 Z" fill="none" stroke="#000000" stroke-miterlimit="10" pointer-events="none"/><g fill="#000000" font-family="Verdana" font-weight="bold" text-anchor="middle" font-size="12px"><text x="124.5" y="569.5">Company</text></g><g fill="#000000" font-family="Helvetica" clip-path="url(#mx-clip-24-582-202-26-0)" font-size="12px"><text x="25.5" y="594.5">- employees: list</text></g><g fill="#000000" font-family="Helvetica" clip-path="url(#mx-clip-24-608-202-26-0)" font-size="12px"><text x="25.5" y="620.5">- name: String</text></g><g fill="#000000" font-family="Helvetica" clip-path="url(#mx-clip-24-634-202-26-0)" font-size="12px"><text x="25.5" y="646.5">- password: String</text></g><path d="M 20 659 L 230 659" fill="none" stroke="#000000" stroke-miterlimit="10" pointer-events="none"/><g fill="#000000" font-family="Helvetica" clip-path="url(#mx-clip-24-668-202-26-0)" font-size="12px"><text x="25.5" y="680.5">+ employeeExists(String): boolean</text></g><g fill="#000000" font-family="Helvetica" clip-path="url(#mx-clip-24-694-202-26-0)" font-size="12px"><text x="25.5" y="706.5">+ addEmployee(String): boolean</text></g><g fill="#000000" font-family="Helvetica" clip-path="url(#mx-clip-24-720-202-26-0)" font-size="12px"><text x="25.5" y="732.5">+ removeEmployee(String): void</text></g><g fill="#000000" font-family="Helvetica" clip-path="url(#mx-clip-24-746-202-26-0)" font-size="12px"><text x="25.5" y="758.5">+ getName(String): void</text></g><g fill="#000000" font-family="Helvetica" clip-path="url(#mx-clip-24-772-202-26-0)" font-size="12px"><text x="25.5" y="784.5">+ setName(String): void</text></g><g fill="#000000" font-family="Helvetica" clip-path="url(#mx-clip-24-798-202-26-0)" font-size="12px"><text x="25.5" y="810.5">+ getPassword(): String</text></g><g fill="#000000" font-family="Helvetica" clip-path="url(#mx-clip-24-824-202-26-0)" font-size="12px"><text x="25.5" y="836.5">+ setPassword(String): void</text></g><rect x="800" y="450" width="160" height="138" fill="#ffffff" stroke="#000000" pointer-events="none"/><path d="M 800 476 L 800 450 L 960 450 L 960 476 Z" fill="none" stroke="#000000" stroke-miterlimit="10" pointer-events="none"/><g fill="#000000" font-family="Verdana" font-weight="bold" text-anchor="middle" font-size="12px"><text x="879.5" y="468.5">DeliveryOrder</text></g><g fill="#000000" font-family="Helvetica" clip-path="url(#mx-clip-804-481-152-26-0)" font-size="12px"><text x="805.5" y="493.5">- address: String</text></g><path d="M 800 506 L 960 506" fill="none" stroke="#000000" stroke-miterlimit="10" pointer-events="none"/><g fill="#000000" font-family="Helvetica" clip-path="url(#mx-clip-804-515-152-26-0)" font-size="12px"><text x="805.5" y="527.5">+ getAddress(): String</text></g><g fill="#000000" font-family="Helvetica" clip-path="url(#mx-clip-804-541-152-26-0)" font-size="12px"><text x="805.5" y="553.5">+ setAddress(String): void</text></g><rect x="970" y="450" width="160" height="138" fill="#ffffff" stroke="#000000" pointer-events="none"/><path d="M 970 476 L 970 450 L 1130 450 L 1130 476 Z" fill="none" stroke="#000000" stroke-miterlimit="10" pointer-events="none"/><g fill="#000000" font-family="Verdana" font-weight="bold" text-anchor="middle" font-size="12px"><text x="1049.5" y="468.5">SitAndEatOrder</text></g><g fill="#000000" font-family="Helvetica" clip-path="url(#mx-clip-974-481-152-26-0)" font-size="12px"><text x="975.5" y="493.5">- tableId: String</text></g><path d="M 970 506 L 1130 506" fill="none" stroke="#000000" stroke-miterlimit="10" pointer-events="none"/><g fill="#000000" font-family="Helvetica" clip-path="url(#mx-clip-974-515-152-26-0)" font-size="12px"><text x="975.5" y="527.5">+ getTableId(): String</text></g><g fill="#000000" font-family="Helvetica" clip-path="url(#mx-clip-974-541-152-26-0)" font-size="12px"><text x="975.5" y="553.5">+ setTableId(String): void</text></g><rect x="830" y="3" width="250" height="247" fill="#ffffff" stroke="#000000" pointer-events="none"/><path d="M 830 54 L 830 3 L 1080 3 L 1080 54 Z" fill="none" stroke="#000000" stroke-miterlimit="10" pointer-events="none"/><g fill="#000000" font-family="Verdana" font-weight="bold" text-anchor="middle" font-size="12px"><text x="954.5" y="21.5">&lt;&lt;Interface&gt;&gt;</text><text x="954.5" y="35.5">Order</text></g><g fill="#000000" font-family="Helvetica" clip-path="url(#mx-clip-834-59-242-26-0)" font-size="12px"><text x="835.5" y="71.5">+ getId(): String</text></g><g fill="#000000" font-family="Helvetica" clip-path="url(#mx-clip-834-85-242-26-0)" font-size="12px"><text x="835.5" y="97.5">+ getDate(): Date</text></g><g fill="#000000" font-family="Helvetica" clip-path="url(#mx-clip-834-111-242-26-0)" font-size="12px"><text x="835.5" y="123.5">+ setDate(Date): void</text></g><g fill="#000000" font-family="Helvetica" clip-path="url(#mx-clip-834-137-242-26-0)" font-size="12px"><text x="835.5" y="149.5">+ getMeal(): String</text></g><g fill="#000000" font-family="Helvetica" clip-path="url(#mx-clip-834-163-242-26-0)" font-size="12px"><text x="835.5" y="175.5">+ setMeal(String): void</text></g><g fill="#000000" font-family="Helvetica" clip-path="url(#mx-clip-834-189-242-26-0)" font-size="12px"><text x="835.5" y="201.5">+ getPayMethod(): PayMethod</text></g><g fill="#000000" font-family="Helvetica" clip-path="url(#mx-clip-834-215-242-26-0)" font-size="12px"><text x="835.5" y="227.5">+ setPayMethod(PayMethod): void</text></g><rect x="270" y="343" width="160" height="80" fill="#ffffff" stroke="#000000" pointer-events="none"/><path d="M 270 394 L 270 343 L 430 343 L 430 394 Z" fill="none" stroke="#000000" stroke-miterlimit="10" pointer-events="none"/><g fill="#000000" font-family="Verdana" font-weight="bold" text-anchor="middle" font-size="12px"><text x="349.5" y="361.5">&lt;&lt;Interface&gt;&gt;</text><text x="349.5" y="375.5">PayMethod</text></g><g fill="#000000" font-family="Helvetica" clip-path="url(#mx-clip-274-399-152-26-0)" font-size="12px"><text x="275.5" y="411.5">+ confirm(Order): boolean</text></g><rect x="460" y="550" width="160" height="50" fill="#ffffff" stroke="#000000" pointer-events="none"/><path d="M 460 576 L 460 550 L 620 550 L 620 576 Z" fill="none" stroke="#000000" stroke-miterlimit="10" pointer-events="none"/><g fill="#000000" font-family="Verdana" font-weight="bold" text-anchor="middle" font-size="12px"><text x="539.5" y="568.5">Cash</text></g><path d="M 540 550 L 406.11 432.32" fill="none" stroke="#ff0000" stroke-miterlimit="10" stroke-dasharray="3 3" pointer-events="none"/><path d="M 396.35 423.74 L 410.4 427.44 L 401.82 437.2 Z" fill="none" stroke="#ff0000" stroke-miterlimit="10" pointer-events="none"/><rect x="270" y="550" width="160" height="244" fill="#ffffff" stroke="#000000" pointer-events="none"/><path d="M 270 576 L 270 550 L 430 550 L 430 576 Z" fill="none" stroke="#000000" stroke-miterlimit="10" pointer-events="none"/><g fill="#000000" font-family="Verdana" font-weight="bold" text-anchor="middle" font-size="12px"><text x="349.5" y="568.5">CreditCard</text></g><g fill="#000000" font-family="Helvetica" clip-path="url(#mx-clip-274-581-152-26-0)" font-size="12px"><text x="275.5" y="593.5">- number: String</text></g><g fill="#000000" font-family="Helvetica" clip-path="url(#mx-clip-274-607-152-26-0)" font-size="12px"><text x="275.5" y="619.5">- owner: String</text></g><g fill="#000000" font-family="Helvetica" clip-path="url(#mx-clip-274-633-152-26-0)" font-size="12px"><text x="275.5" y="645.5">- expirationDate: Date</text></g><g fill="#000000" font-family="Helvetica" clip-path="url(#mx-clip-274-659-152-26-0)" font-size="12px"><text x="275.5" y="671.5">- code: String</text></g><path d="M 270 684 L 430 684" fill="none" stroke="#000000" stroke-miterlimit="10" pointer-events="none"/><g fill="#000000" font-family="Helvetica" clip-path="url(#mx-clip-274-693-152-26-0)" font-size="12px"><text x="275.5" y="705.5">+ getNumber() : String</text></g><g fill="#000000" font-family="Helvetica" clip-path="url(#mx-clip-274-719-152-26-0)" font-size="12px"><text x="275.5" y="731.5">+ getOwner(): String</text></g><g fill="#000000" font-family="Helvetica" clip-path="url(#mx-clip-274-745-152-26-0)" font-size="12px"><text x="275.5" y="757.5">+ getExpirationDate(): Date</text></g><g fill="#000000" font-family="Helvetica" clip-path="url(#mx-clip-274-771-152-26-0)" font-size="12px"><text x="275.5" y="783.5">+ getCode(): String</text></g><path d="M 350 550 L 350 437.12" fill="none" stroke="#ff0000" stroke-miterlimit="10" stroke-dasharray="3 3" pointer-events="none"/><path d="M 350 424.12 L 356.5 437.12 L 343.5 437.12 Z" fill="none" stroke="#ff0000" stroke-miterlimit="10" pointer-events="none"/><path d="M 125 551 L 285.12 431.45" fill="none" stroke="#ff0000" stroke-miterlimit="10" stroke-dasharray="3 3" pointer-events="none"/><path d="M 295.53 423.67 L 289 436.65 L 281.23 426.24 Z" fill="none" stroke="#ff0000" stroke-miterlimit="10" pointer-events="none"/><path d="M 880 450 L 923.18 263.75" fill="none" stroke="#ff0000" stroke-miterlimit="10" stroke-dasharray="3 3" pointer-events="none"/><path d="M 926.12 251.09 L 929.51 265.22 L 916.85 262.29 Z" fill="none" stroke="#ff0000" stroke-miterlimit="10" pointer-events="none"/><path d="M 1050 450 L 995.25 263.55" fill="none" stroke="#ff0000" stroke-miterlimit="10" stroke-dasharray="3 3" pointer-events="none"/><path d="M 991.58 251.07 L 1001.48 261.71 L 989.01 265.38 Z" fill="none" stroke="#ff0000" stroke-miterlimit="10" pointer-events="none"/><rect x="300" y="34" width="380" height="164" fill="#ffffff" stroke="#000000" pointer-events="none"/><path d="M 300 60 L 300 34 L 680 34 L 680 60 Z" fill="none" stroke="#000000" stroke-miterlimit="10" pointer-events="none"/><g fill="#000000" font-family="Verdana" font-weight="bold" text-anchor="middle" font-size="12px"><text x="489.5" y="52.5">VipOrder</text></g><g fill="#000000" font-family="Helvetica" clip-path="url(#mx-clip-304-65-372-26-0)" font-size="12px"><text x="305.5" y="77.5">- personMealMap: map</text></g><g fill="#000000" font-family="Helvetica" clip-path="url(#mx-clip-304-91-372-26-0)" font-size="12px"><text x="305.5" y="103.5">+ vipUser: VipUser</text></g><path d="M 300 116 L 680 116" fill="none" stroke="#000000" stroke-miterlimit="10" pointer-events="none"/><g fill="#000000" font-family="Helvetica" clip-path="url(#mx-clip-304-125-372-26-0)" font-size="12px"><text x="305.5" y="137.5">+ addOrder(meal: String, person: String): void</text></g><g fill="#000000" font-family="Helvetica" clip-path="url(#mx-clip-304-151-372-26-0)" font-size="12px"><text x="305.5" y="163.5">+ removeOrder(meal: String, person: String): void</text></g><g fill="#000000" font-family="Helvetica" clip-path="url(#mx-clip-304-177-372-26-0)" font-size="12px"><text x="305.5" y="189.5">+ editOrder(meal: String, person: String, id: String): void</text></g><rect x="0" y="211" width="160" height="145" fill="#ffffff" stroke="#000000" pointer-events="none"/><path d="M 0 237 L 0 211 L 160 211 L 160 237 Z" fill="none" stroke="#000000" stroke-miterlimit="10" pointer-events="none"/><g fill="#000000" font-family="Verdana" font-weight="bold" text-anchor="middle" font-size="12px"><text x="79.5" y="229.5">Waiter</text></g><g fill="#000000" font-family="Helvetica" clip-path="url(#mx-clip-4-242-152-26-0)" font-size="12px"><text x="5.5" y="254.5">- name: String</text></g><g fill="#000000" font-family="Helvetica" clip-path="url(#mx-clip-4-268-152-26-0)" font-size="12px"><text x="5.5" y="280.5">- password: String</text></g><path d="M 0 293 L 160 293" fill="none" stroke="#000000" stroke-miterlimit="10" pointer-events="none"/><g fill="#000000" font-family="Helvetica" clip-path="url(#mx-clip-4-302-152-26-0)" font-size="12px"><text x="5.5" y="314.5">+ getName(): String</text></g><g fill="#000000" font-family="Helvetica" clip-path="url(#mx-clip-4-328-152-26-0)" font-size="12px"><text x="5.5" y="340.5">+ getPassword(): String</text></g><path d="M 680 120.29 L 815.89 123.36" fill="none" stroke="#ff0000" stroke-miterlimit="10" stroke-dasharray="3 3" pointer-events="none"/><path d="M 828.88 123.65 L 815.74 129.86 L 816.03 116.86 Z" fill="none" stroke="#ff0000" stroke-miterlimit="10" pointer-events="none"/></g></svg>