<!DOCTYPE svg PUBLIC "-//W3C//DTD SVG 1.1//EN" "http://www.w3.org/Graphics/SVG/1.1/DTD/svg11.dtd">
<svg xmlns="http://www.w3.org/2000/svg" style="background-color: rgb(255, 255, 255);" xmlns:xlink="http://www.w3.org/1999/xlink" width="801px" height="592px" version="1.1"><defs/><g transform="translate(0.5,0.5)"><rect x="480" y="0" width="100" height="40" rx="6" ry="6" fill="#ffffff" stroke="#000000" pointer-events="none"/><path d="M 530 40 L 530 580" fill="none" stroke="#000000" stroke-miterlimit="10" stroke-dasharray="3 3" pointer-events="none"/><g fill="#000000" font-family="Verdana" text-anchor="middle" font-size="12px"><text x="529.5" y="24.5">Server</text></g><rect x="525" y="100" width="10" height="340" fill="#ffffff" stroke="#000000" pointer-events="none"/><rect x="530" y="284" width="10" height="40" fill="#ffffff" stroke="#000000" pointer-events="none"/><path d="M 535 265 Q 590 265 590 284 Q 590 303 548.12 303" fill="none" stroke="#000000" stroke-miterlimit="10" pointer-events="none"/><path d="M 541.12 303 L 548.12 299.5 L 548.12 306.5 Z" fill="#000000" stroke="#000000" stroke-miterlimit="10" pointer-events="none"/><g fill="#000000" font-family="Verdana" text-anchor="middle" font-size="12px"><text x="589.5" y="248.5">IsPaymentValid()</text></g><rect x="70" y="0" width="100" height="40" rx="6" ry="6" fill="#ffffff" stroke="#000000" pointer-events="none"/><path d="M 120 40 L 120 580" fill="none" stroke="#000000" stroke-miterlimit="10" stroke-dasharray="3 3" pointer-events="none"/><g fill="#000000" font-family="Verdana" text-anchor="middle" font-size="12px"><text x="119.5" y="24.5">UserApp</text></g><rect x="115" y="100" width="10" height="440" fill="#ffffff" stroke="#000000" pointer-events="none"/><path d="M 528 430 L 340 430 Q 330 430 320 430 L 127.24 430" fill="none" stroke="#000000" stroke-miterlimit="10" stroke-dasharray="3 3" pointer-events="none"/><path d="M 135.12 425.5 L 126.12 430 L 135.12 434.5" fill="none" stroke="#000000" stroke-miterlimit="10" pointer-events="none"/><g fill="#000000" font-family="Verdana" text-anchor="middle" font-size="12px"><text x="325.5" y="423.5">OrderAccepted</text></g><path d="M 125 250 L 220 250 Q 230 250 240 250 L 516.88 250" fill="none" stroke="#000000" stroke-miterlimit="10" pointer-events="none"/><path d="M 523.88 250 L 516.88 253.5 L 516.88 246.5 Z" fill="#000000" stroke="#000000" stroke-miterlimit="10" pointer-events="none"/><g fill="#000000" font-family="Verdana" text-anchor="middle" font-size="12px"><text x="324.5" y="243.5">SendOrder(Order)</text></g><path d="M 0 110 C 0 86 0 74 20 74 C 6.67 74 6.67 50 20 50 C 33.33 50 33.33 74 20 74 C 40 74 40 86 40 110 Z" fill="#ffffff" stroke="#000000" stroke-miterlimit="10" pointer-events="none"/><path d="M 40 100 L 67.5 100 Q 77.5 100 87.5 100 L 106.88 100" fill="none" stroke="#000000" stroke-miterlimit="10" pointer-events="none"/><path d="M 113.88 100 L 106.88 103.5 L 106.88 96.5 Z" fill="#000000" stroke="#000000" stroke-miterlimit="10" pointer-events="none"/><g fill="#000000" font-family="Verdana" text-anchor="middle" font-size="12px"><text x="77.5" y="93.5">order info</text></g><path d="M 135 560 L 105 590 M 105 560 L 135 590" fill="none" stroke="#000000" stroke-width="3" stroke-miterlimit="10" pointer-events="none"/><rect x="275" y="0" width="100" height="40" rx="6" ry="6" fill="#ffffff" stroke="#000000" pointer-events="none"/><path d="M 325 40 L 325 290" fill="none" stroke="#000000" stroke-miterlimit="10" stroke-dasharray="3 3" pointer-events="none"/><g fill="#000000" font-family="Verdana" text-anchor="middle" font-size="12px"><text x="324.5" y="24.5">Order</text></g><rect x="320" y="100" width="10" height="90" fill="#ffffff" stroke="#000000" pointer-events="none"/><path d="M 120 100 L 317.76 102.97" fill="none" stroke="#000000" stroke-miterlimit="10" stroke-dasharray="3 3" pointer-events="none"/><path d="M 305.79 109.29 L 318.88 102.98 L 305.98 96.29" fill="none" stroke="#000000" stroke-miterlimit="10" pointer-events="none"/><g fill="#000000" font-family="Helvetica" text-anchor="middle" font-size="11px"><rect fill="#ffffff" stroke="none" x="211" y="88" width="24" height="14" stroke-width="0"/><text x="221.61" y="96.53">new</text></g><path d="M 340 280 L 310 310 M 310 280 L 340 310" fill="none" stroke="#000000" stroke-width="3" stroke-miterlimit="10" pointer-events="none"/><rect x="690" y="0" width="110" height="40" rx="6" ry="6" fill="#ffffff" stroke="#000000" pointer-events="none"/><path d="M 745 40 L 745 580" fill="none" stroke="#000000" stroke-miterlimit="10" stroke-dasharray="3 3" pointer-events="none"/><g fill="#000000" font-family="Verdana" text-anchor="middle" font-size="12px"><text x="744.5" y="24.5">RestaurantApp</text></g><rect x="740" y="100" width="10" height="340" fill="#ffffff" stroke="#000000" pointer-events="none"/><path d="M 535 430 L 535 431.5 Q 535 433 545 433 L 730.88 433" fill="none" stroke="#000000" stroke-miterlimit="10" pointer-events="none"/><path d="M 737.88 433 L 730.88 436.5 L 730.88 429.5 Z" fill="#000000" stroke="#000000" stroke-miterlimit="10" pointer-events="none"/><g fill="#000000" font-family="Verdana" text-anchor="middle" font-size="12px"><text x="635.5" y="426.5">NotifyRestaurant</text></g><path d="M 525 380 L 337 380 Q 327 380 317 380 L 124.24 380" fill="none" stroke="#000000" stroke-miterlimit="10" stroke-dasharray="3 3" pointer-events="none"/><path d="M 132.12 375.5 L 123.12 380 L 132.12 384.5" fill="none" stroke="#000000" stroke-miterlimit="10" pointer-events="none"/><g fill="#000000" font-family="Verdana" text-anchor="middle" font-size="12px"><text x="322.5" y="373.5">OrderRejected</text></g></g></svg>