<!DOCTYPE svg PUBLIC "-//W3C//DTD SVG 1.1//EN" "http://www.w3.org/Graphics/SVG/1.1/DTD/svg11.dtd">
<svg xmlns="http://www.w3.org/2000/svg" style="background-color: rgb(255, 255, 255);" xmlns:xlink="http://www.w3.org/1999/xlink" width="730px" height="266px" version="1.1"><defs/><g transform="translate(0.5,0.5)"><path d="M 144 145 L 144 165 Q 144 175 144 185 L 144 202.76" fill="none" stroke="#ff0000" stroke-miterlimit="10" pointer-events="none"/><path d="M 139.5 194.88 L 144 203.88 L 148.5 194.88" fill="none" stroke="#ff0000" stroke-miterlimit="10" pointer-events="none"/><g fill="#000000" font-family="Verdana" font-size="12px"><text x="145.5" y="178.5">Commit</text></g><rect x="49" y="85" width="190" height="60" rx="14.4" ry="14.4" fill="#ffffc0" stroke="#ff0000" pointer-events="none"/><g fill="#000000" font-family="Verdana" text-anchor="middle" font-size="12px"><text x="143.5" y="118.5">Selecting order information</text></g><ellipse cx="714" cy="235" rx="11" ry="11" fill="#000000" stroke="#ff0000" pointer-events="none"/><ellipse cx="714" cy="235" rx="15" ry="15" fill="transparent" stroke="#ff0000" pointer-events="none"/><path d="M 143 30 L 143 47.5 Q 143 57.5 143 67.5 L 143 82.76" fill="none" stroke="#ff0000" stroke-miterlimit="10" pointer-events="none"/><path d="M 138.5 74.88 L 143 83.88 L 147.5 74.88" fill="none" stroke="#ff0000" stroke-miterlimit="10" pointer-events="none"/><ellipse cx="143" cy="15" rx="11" ry="11" fill="#000000" stroke="#ff0000" transform="rotate(90,143,15)" pointer-events="none"/><path d="M 204 235 L 302 235 Q 312 235 322 235 L 416.76 235" fill="none" stroke="#ff0000" stroke-miterlimit="10" pointer-events="none"/><path d="M 408.88 239.5 L 417.88 235 L 408.88 230.5" fill="none" stroke="#ff0000" stroke-miterlimit="10" pointer-events="none"/><g fill="#000000" font-family="Verdana" font-size="12px"><text x="293.5" y="228.5">Valid order</text></g><rect x="84" y="205" width="120" height="60" rx="14.4" ry="14.4" fill="#ffffc0" stroke="#ff0000" pointer-events="none"/><g fill="#000000" font-family="Verdana" text-anchor="middle" font-size="12px"><text x="143.5" y="238.5">Verifying order</text></g><path d="M 539 250 L 609 250 Q 619 250 619 242.5 L 619 238.75 Q 619 235 629 235 L 696.76 235" fill="none" stroke="#ff0000" stroke-miterlimit="10" pointer-events="none"/><path d="M 688.88 239.5 L 697.88 235 L 688.88 230.5" fill="none" stroke="#ff0000" stroke-miterlimit="10" pointer-events="none"/><g fill="#000000" font-family="Verdana" font-size="12px"><text x="560.5" y="258.5">Cancel</text></g><rect x="419" y="205" width="120" height="60" rx="14.4" ry="14.4" fill="#ffffc0" stroke="#ff0000" pointer-events="none"/><g fill="#000000" font-family="Verdana" text-anchor="middle" font-size="12px"><text x="478.5" y="238.5">Order scheduled</text></g><path d="M 84 235 L 19 235 Q 9 235 9 225 L 9 125 Q 9 115 19 115 L 46.76 115" fill="none" stroke="#ff0000" stroke-miterlimit="10" pointer-events="none"/><path d="M 38.88 119.5 L 47.88 115 L 38.88 110.5" fill="none" stroke="#ff0000" stroke-miterlimit="10" pointer-events="none"/><g fill="#000000" font-family="Verdana" font-size="12px"><text x="10.5" y="195.5">Invalid order</text></g><path d="M 479 205 L 479 140 Q 479 130 469 130 L 241.24 130" fill="none" stroke="#ff0000" stroke-miterlimit="10" pointer-events="none"/><path d="M 249.12 125.5 L 240.12 130 L 249.12 134.5" fill="none" stroke="#ff0000" stroke-miterlimit="10" pointer-events="none"/><g fill="#000000" font-family="Verdana" font-size="12px"><text x="355.5" y="143.5">Edit</text></g><path d="M 539 220 L 609 220 Q 619 220 619 227.5 L 619 231.25 Q 619 235 629 235 L 696.76 235" fill="none" stroke="#ff0000" stroke-miterlimit="10" pointer-events="none"/><path d="M 688.88 239.5 L 697.88 235 L 688.88 230.5" fill="none" stroke="#ff0000" stroke-miterlimit="10" pointer-events="none"/><g fill="#000000" font-family="Verdana" font-size="12px"><text x="560.5" y="218.5">Finish</text></g><path d="M 239 100 L 704 100 Q 714 100 714 110 L 714 217.76" fill="none" stroke="#ff0000" stroke-miterlimit="10" pointer-events="none"/><path d="M 709.5 209.88 L 714 218.88 L 718.5 209.88" fill="none" stroke="#ff0000" stroke-miterlimit="10" pointer-events="none"/><g fill="#000000" font-family="Verdana" font-size="12px"><text x="360.5" y="98.5">Cancel</text></g></g></svg>